# xmcd
#
# Track frame offsets:
#	150
#	20626
#	41681
#	60752
#	74095
#	90643
#
# Disc length: 1448 seconds
#
# Revision: 1
# Processed by: cddbd v1.5.2PL0 Copyright (c) Steve Scherf et al.
# Submitted via: audiograbber 1.83.01
#
DISCID=4b05a606
DTITLE=Black Tie Dynasty [daryl] - Bloody Basin
DYEAR=2005
DGENRE=indie
TTITLE0=Bloody Basin
TTITLE1=The Letter A
TTITLE2=Signs
TTITLE3=Exploding Hearts
TTITLE4=Happy
TTITLE5=Gloria
EXTD=
EXTT0=
EXTT1=
EXTT2=
EXTT3=
EXTT4=
EXTT5=
PLAYORDER=
